<?xml version="1.0" encoding="UTF-8"?>
<svg id="Layer_1" data-name="Layer 1" xmlns="http://www.w3.org/2000/svg" version="1.1" viewBox="0 0 16 16">
  <defs>
    <style>
      .cls-1 {
        fill: #00b13e;
      }

      .cls-1, .cls-2 {
        stroke-width: 0px;
      }

      .cls-2 {
        fill: #8dc63f;
      }
    </style>
  </defs>
  <path class="cls-1" d="M11.06,8.51c1.15-.24,1.99-1.2,1.99-2.38,0-2.58-2.25-3.12-4.43-3.12h-2.8v2.27h2.86c.81,0,1.63.19,1.63,1.16s-.81,1.16-1.63,1.16h-2.86v-2.29h-2.71v9.38h5.64c2.31,0,4.71-.81,4.71-3.5,0-1.49-1.02-2.38-2.41-2.68ZM8.69,12.42h-2.86v-2.64h2.86c.99,0,2.01.1,2.01,1.32s-1.02,1.32-2.01,1.32Z"/>
  <rect class="cls-2" x="3.12" y=".73" width="2.71" height="2.29"/>
</svg>